<svg xmlns="http://www.w3.org/2000/svg" xmlns:xlink="http://www.w3.org/1999/xlink" width="600" height="700" viewBox="0 0 600 700"><defs><path id="a" d="M.5.5h600v700H.5z"/></defs><clipPath id="b"><use xlink:href="#a" overflow="visible"/></clipPath><g clip-path="url(#b)"><path d="M1015.6 400.4l-663.2 663.2m659.2-667.2l-663.2 663.2m659.2-667.2l-663.2 663.2m659.2-667.2l-663.2 663.2m659.2-667.2l-663.2 663.2m659.2-667.2l-663.2 663.2m659.2-667.2l-663.2 663.2m659.2-667.2l-663.2 663.2m659.2-667.2l-663.2 663.2m659.2-667.2l-663.2 663.2m659.2-667.2l-663.2 663.2m659.2-667.2l-663.2 663.2m659.2-667.2l-663.2 663.2m659.2-667.2l-663.2 663.2m659.2-667.2l-663.2 663.2m659.2-667.2l-663.2 663.2m659.2-667.2L288.4 999.6m659.2-667.2L284.4 995.6m659.2-667.2L280.4 991.6m659.2-667.2L276.4 987.6m659.2-667.2L272.4 983.6m659.2-667.2L268.4 979.6m659.2-667.2L264.4 975.6m659.2-667.2L260.4 971.6m659.2-667.2L256.4 967.6m659.2-667.2L252.4 963.6m659.2-667.2L248.4 959.6m659.2-667.2L244.4 955.6m659.2-667.2L240.4 951.6m659.2-667.2L236.4 947.6m659.2-667.2L232.4 943.6m659.2-667.2L228.4 939.6m659.2-667.2L224.4 935.6m659.2-667.2L220.4 931.6m659.2-667.2L216.4 927.6m659.2-667.2L212.4 923.6m659.2-667.2L208.4 919.6m659.2-667.2L204.4 915.6m659.2-667.2L200.4 911.6m659.2-667.2L196.4 907.6m659.2-667.2L192.4 903.6m659.2-667.2L188.4 899.6m659.2-667.2L184.4 895.6m659.2-667.2L180.4 891.6m659.2-667.2L176.4 887.6m659.2-667.2L172.4 883.6m659.2-667.2L168.4 879.6m659.2-667.2L164.4 875.6m659.2-667.2L160.4 871.6m659.2-667.2L156.4 867.6m659.2-667.2L152.4 863.6m659.2-667.2L148.4 859.6m659.2-667.2L144.4 855.6m659.2-667.2L140.4 851.6m659.2-667.2L136.4 847.6m659.2-667.2L132.4 843.6m659.2-667.2L128.4 839.6m659.2-667.2L124.4 835.6m659.2-667.2L120.4 831.6m659.2-667.2L116.4 827.6m659.2-667.2L112.4 823.6m659.2-667.2L108.4 819.6m659.2-667.2L104.4 815.6m659.2-667.2L100.4 811.6m659.2-667.2L96.4 807.6m659.2-667.2L92.4 803.6m659.2-667.2L88.4 799.6m659.2-667.2L84.4 795.6m659.2-667.2L80.4 791.6m659.2-667.2L76.4 787.6m659.2-667.2L72.4 783.6m659.2-667.2L68.4 779.6m659.2-667.2L64.4 775.6m659.2-667.2L60.4 771.6m659.2-667.2L56.4 767.6m659.2-667.2L52.4 763.6M711.6 96.4L48.4 759.6M707.6 92.4L44.4 755.6M703.6 88.4L40.4 751.6M699.6 84.4L36.4 747.6M695.6 80.4L32.4 743.6M691.6 76.4L28.4 739.6M687.6 72.4L24.4 735.6M683.6 68.4L20.4 731.6M679.6 64.4L16.4 727.6M675.6 60.4L12.4 723.6M671.6 56.4L8.4 719.6M667.6 52.4L4.4 715.6M663.6 48.4L.4 711.6M659.6 44.4L-3.6 707.6M655.6 40.4L-7.6 703.6M651.6 36.4L-11.6 699.6M647.6 32.4L-15.6 695.6M643.6 28.4L-19.6 691.6M639.6 24.4L-23.6 687.6M635.6 20.4L-27.6 683.6M631.6 16.4L-31.6 679.6M627.6 12.4L-35.6 675.6M623.6 8.4L-39.6 671.6M619.6 4.4L-43.6 667.6M615.6.4L-47.6 663.6M611.6-3.6L-51.6 659.6M607.6-7.6L-55.6 655.6M603.6-11.6L-59.6 651.6M599.6-15.6L-63.6 647.6M595.6-19.6L-67.6 643.6M591.6-23.6L-71.6 639.6M587.6-27.6L-75.6 635.6M583.6-31.6L-79.6 631.6M579.6-35.6L-83.6 627.6M575.6-39.6L-87.6 623.6M571.6-43.6L-91.6 619.6M567.6-47.6L-95.6 615.6M563.6-51.6L-99.6 611.6M559.6-55.6l-663.2 663.2M555.6-59.6l-663.2 663.2M551.6-63.6l-663.2 663.2M547.6-67.6l-663.2 663.2M543.6-71.6l-663.2 663.2M539.6-75.6l-663.2 663.2M535.6-79.6l-663.2 663.2M531.6-83.6l-663.2 663.2M527.6-87.6l-663.2 663.2M523.6-91.6l-663.2 663.2M519.6-95.6l-663.2 663.2M515.6-99.6l-663.2 663.2m659.2-667.2l-663.2 663.2m659.2-667.2l-663.2 663.2m659.2-667.2l-663.2 663.2m659.2-667.2l-663.2 663.2m659.2-667.2l-663.2 663.2m659.2-667.2l-663.2 663.2m659.2-667.2l-663.2 663.2m659.2-667.2l-663.2 663.2m659.2-667.2l-663.2 663.2m659.2-667.2l-663.2 663.2m659.2-667.2l-663.2 663.2m659.2-667.2l-663.2 663.2m659.2-667.2l-663.2 663.2m659.2-667.2l-663.2 663.2m659.2-667.2l-663.2 663.2m659.2-667.2l-663.2 663.2m659.2-667.2l-663.2 663.2m659.2-667.2l-663.2 663.2m659.2-667.2l-663.2 663.2m659.2-667.2l-663.2 663.2m659.2-667.2l-663.2 663.2m659.2-667.2l-663.2 663.2m659.2-667.2l-663.2 663.2m659.2-667.2l-663.2 663.2m659.2-667.2l-663.2 663.2m659.2-667.2l-663.2 663.2m659.2-667.2l-663.2 663.2m659.2-667.2l-663.2 663.2m659.2-667.2l-663.2 663.2m659.2-667.2l-663.2 663.2m659.2-667.2l-663.2 663.2m659.2-667.2l-663.2 663.2m659.2-667.2l-663.2 663.2m659.2-667.2l-663.2 663.2m659.2-667.2l-663.2 663.2m659.2-667.2l-663.2 663.2m659.2-667.2l-663.2 663.2m659.2-667.2l-663.2 663.2m659.2-667.2l-663.2 663.2m659.2-667.2l-663.2 663.2m659.2-667.2l-663.2 663.2m659.2-667.2l-663.2 663.2m659.2-667.2l-663.2 663.2m659.2-667.2l-663.2 663.2m659.2-667.2l-663.2 663.2m659.2-667.2l-663.2 663.2m659.2-667.2l-663.2 663.2m659.2-667.2l-663.2 663.2m659.2-667.2l-663.2 663.2m659.2-667.2l-663.2 663.2m659.2-667.2l-663.2 663.2m659.2-667.2l-663.2 663.2m659.2-667.2l-663.2 663.2m659.2-667.2l-663.2 663.2m659.2-667.2l-663.2 663.2m659.2-667.2l-663.2 663.2m659.2-667.2l-663.2 663.2m659.2-667.2l-663.2 663.2m659.2-667.2l-663.2 663.2m659.2-667.2l-663.2 663.2m659.2-667.2l-663.2 663.2m659.2-667.2l-663.2 663.2m659.2-667.2l-663.2 663.2m659.2-667.2l-663.2 663.2m659.2-667.2l-663.2 663.2m659.2-667.2l-663.2 663.2m659.2-667.2l-663.2 663.2" fill="none" stroke="#f2a538" stroke-miterlimit="10"/></g></svg>