<?xml version="1.0" encoding="utf-8"?>
<!-- Generator: Adobe Illustrator 19.0.0, SVG Export Plug-In . SVG Version: 6.00 Build 0)  -->
<svg version="1.1" id="Layer_1" xmlns="http://www.w3.org/2000/svg" xmlns:xlink="http://www.w3.org/1999/xlink" x="0px" y="0px"
	 width="930px" height="195px" viewBox="290 187 930 195" style="enable-background:new 290 187 930 195;" xml:space="preserve">
<style type="text/css">
	.st0{fill:#FFFFFF;}
	.st1{fill:none;stroke:#FFFFFF;stroke-linecap:round;stroke-linejoin:round;stroke-miterlimit:10;}
</style>
<g>
	<path class="st0" d="M1206.9,292l-11.6-11c-9,8.4-19.4,12.6-31,12.6s-21.5-4.2-29.8-12.5c-8.4-8.3-12.6-18.3-12.6-30.1
		s4.2-21.8,12.6-30.1c8.3-8.3,18.3-12.5,29.8-12.5c11.7,0,22.1,4.3,31,12.8l11.6-11.1c-11.9-12.3-26.1-18.5-42.6-18.5
		c-16.4,0-30,5.7-40.8,17c-12.3,12.1-18.5,26.2-18.5,42.4s6,30.4,17.9,42.5c11.3,11.3,25.1,17,41.4,17
		C1180.8,310.5,1195,304.4,1206.9,292z M1057.3,250.9c0,11.8-4.2,21.8-12.5,30.1c-8.3,8.3-18.4,12.5-30.1,12.5
		c-11.6,0-21.4-3.4-29.4-10.3c-8.7-9.8-13.1-20.5-13.1-32.3s4.4-22.6,13.1-32.3c8-6.8,17.8-10.3,29.4-10.3
		c11.7,0,21.8,4.2,30.1,12.5C1053.2,229.3,1057.3,239.3,1057.3,250.9z M1074.4,250.9c0-16.4-5.8-30.4-17.5-42.1
		c-11.6-11.5-25.6-17.3-42.2-17.3c-16.5,0-30.1,5.6-40.8,16.9c-12.4,12.1-18.6,26.2-18.6,42.5s6.2,30.5,18.6,42.5
		c10.8,11.3,24.3,17,40.8,17s30.5-5.8,42.2-17.5C1068.6,281.4,1074.4,267.4,1074.4,250.9z M906.1,250.9c0,10.8-3.9,20.2-11.7,28.2
		c-8,7.8-17.4,11.7-28.3,11.7h-25.9v-79.6h25.9c11,0,20.4,3.9,28.2,11.7C902.2,230.8,906.1,240.1,906.1,250.9z M923.1,250.9
		c0-15.5-5.6-28.8-16.7-40c-11-11.1-24.4-16.7-40.1-16.7h-42.9v113.3h42.9c15.7,0,29.1-5.5,40.1-16.5
		C917.5,280,923.1,266.6,923.1,250.9z M772.2,250.9c0,11.8-4.2,21.8-12.5,30.1c-8.3,8.3-18.4,12.5-30.1,12.5
		c-11.6,0-21.4-3.4-29.4-10.3c-8.7-9.8-13.1-20.5-13.1-32.3s4.4-22.6,13.1-32.3c8-6.8,17.8-10.3,29.4-10.3
		c11.7,0,21.8,4.2,30.1,12.5C768.1,229.3,772.2,239.3,772.2,250.9z M789.3,250.9c0-16.4-5.8-30.4-17.5-42.1
		c-11.6-11.5-25.6-17.3-42.2-17.3c-16.5,0-30.1,5.6-40.8,16.9c-12.4,12.1-18.6,26.2-18.6,42.5s6.2,30.5,18.6,42.5
		c10.8,11.3,24.3,17,40.8,17s30.5-5.8,42.2-17.5C783.4,281.4,789.3,267.4,789.3,250.9z M642.1,211.3v-16.9h-88.5v16.9h35.7v96.4h17
		v-96.4H642.1z"/>
	<g>
		<path class="st0" d="M555.2,349.4c0.1-0.3,0.3-0.6,0.6-0.8c0.3-0.2,0.6-0.3,0.9-0.2c0.4,0,0.7,0.2,0.9,0.6l9.2,14.6l9.1-14.4
			c0.2-0.4,0.5-0.6,0.9-0.7c0.3-0.1,0.7-0.1,1,0.1c0.3,0.2,0.5,0.4,0.6,0.7s0,0.7-0.2,1.1L568,366.6v13c0,0.4-0.1,0.8-0.4,1.1
			c-0.3,0.2-0.6,0.3-0.9,0.3c-0.4,0-0.7-0.1-0.9-0.3c-0.3-0.3-0.4-0.6-0.4-1.1v-13l-10.1-16.1C555.2,350,555.1,349.6,555.2,349.4z"
			/>
		<path class="st0" d="M611.6,360.5c1.7,2.2,2.5,5,2.5,8.3s-0.8,6.1-2.5,8.3c-1.9,2.5-4.5,3.8-7.8,3.8c-3.4,0-6-1.3-7.9-3.8
			c-1.7-2.2-2.5-5-2.5-8.3c0-3.4,0.8-6.1,2.5-8.3c1.9-2.5,4.5-3.7,7.9-3.7C607.1,356.9,609.7,358,611.6,360.5z M597.9,362.1
			c-1.2,1.8-1.8,4-1.8,6.7s0.6,4.9,1.8,6.7c1.4,2,3.4,3,5.9,3s4.4-1,5.8-3c1.3-1.8,1.9-4,1.9-6.7s-0.6-4.9-1.9-6.7
			c-1.4-2-3.3-3-5.8-3C601.2,359.1,599.3,360.1,597.9,362.1z"/>
		<path class="st0" d="M647,380.1c-0.3,0.2-0.6,0.3-0.9,0.3c-0.4,0-0.7-0.1-0.9-0.3c-0.3-0.3-0.4-0.6-0.4-1v-1.9
			c-0.9,1-1.9,1.9-3.1,2.5c-1.4,0.7-2.8,1.1-4.4,1.1c-2.2,0-4-0.7-5.3-2.1c-1.2-1.3-1.8-2.8-1.8-4.6v-16.2c0-0.5,0.1-0.8,0.4-1.1
			c0.3-0.3,0.6-0.4,0.9-0.4s0.6,0.1,0.9,0.4c0.3,0.3,0.4,0.6,0.4,1.1v16.2c0,1.2,0.4,2.1,1.1,3c0.8,0.9,1.9,1.4,3.3,1.4
			c1.4,0,2.8-0.4,4.1-1.2c1.2-0.7,2.4-1.8,3.4-3.2v-16c0-0.5,0.1-0.8,0.4-1.1s0.6-0.4,0.9-0.4c0.4,0,0.7,0.1,0.9,0.4
			c0.3,0.3,0.4,0.6,0.4,1.1v21.2C647.4,379.5,647.3,379.9,647,380.1z"/>
		<path class="st0" d="M664.8,357.4c0.3-0.2,0.6-0.3,0.9-0.3s0.6,0.1,0.9,0.3c0.3,0.2,0.4,0.5,0.4,0.9v1.7c0.7-1,1.5-1.7,2.3-2.2
			c1.1-0.7,2.3-1,3.6-1c0.6,0,0.9,0.4,1,1.3c0,0.9-0.3,1.3-1,1.3c-1.4,0-2.6,0.4-3.7,1.1c-1,0.6-1.7,1.5-2.2,2.6v16.5
			c0,0.4-0.1,0.8-0.4,1s-0.5,0.3-0.9,0.3c-0.4,0-0.7-0.1-0.9-0.3c-0.3-0.3-0.4-0.6-0.4-1v-21.2C664.4,358,664.5,357.6,664.8,357.4z"
			/>
		<path class="st0" d="M730.5,350.9c1.3,1.3,2.1,2.9,2.5,5c0.1,0.5,0,1-0.3,1.3c-0.2,0.3-0.5,0.5-0.9,0.5s-0.7-0.1-1-0.3
			s-0.5-0.6-0.6-1c-0.3-2-1.1-3.5-2.3-4.4c-1.2-0.9-2.9-1.4-5.1-1.4c-2.4,0-4.2,0.4-5.6,1.3c-1.4,0.9-2.2,2.3-2.2,4s0.6,3.1,1.7,4.1
			c1.2,1,3.3,1.8,6.4,2.5c4,0.8,6.9,2,8.5,3.5s2.4,3.6,2.4,6.3s-1.1,4.8-3.3,6.3c-2,1.5-4.6,2.2-7.7,2.2c-3.5,0-6.1-0.7-8-2.2
			c-2-1.6-3.2-4-3.5-7.2c-0.1-0.5,0.1-0.8,0.3-1.1c0.2-0.2,0.5-0.4,0.8-0.4c0.4,0,0.7,0.1,0.9,0.3c0.3,0.3,0.5,0.6,0.5,1.1
			c0.2,2.5,1.1,4.4,2.6,5.5c1.4,1.1,3.4,1.6,6.1,1.6c2,0,3.8-0.5,5.5-1.4c1.9-1.1,2.9-2.6,2.9-4.5c0-2.1-0.5-3.6-1.5-4.6
			c-1.2-1.2-3.6-2.2-7.2-3c-3.5-0.8-6-1.8-7.5-3c-1.8-1.4-2.8-3.4-2.8-5.9s0.9-4.4,2.8-5.8c1.9-1.4,4.5-2,7.8-2
			C726.3,348.3,728.8,349.1,730.5,350.9z"/>
		<path class="st0" d="M766,372.9c0.3-0.1,0.7-0.1,1.1,0c0.3,0.1,0.6,0.3,0.7,0.6c0.2,0.4,0.2,0.8,0,1.2c-0.8,2-2,3.5-3.6,4.5
			c-1.6,1.1-3.4,1.6-5.6,1.6c-3,0-5.4-1.2-7.2-3.7c-1.6-2.3-2.4-5-2.4-8.3s0.8-6.1,2.4-8.4c1.8-2.5,4.2-3.7,7.2-3.7s5.4,1.2,7.2,3.7
			c1.6,2.3,2.5,5.1,2.5,8.4v0.7h-16.6c0.1,2.4,0.7,4.4,1.8,6c1.3,1.9,3,2.9,5.1,2.9c1.7,0,3.1-0.5,4.2-1.5c0.9-0.7,1.7-1.8,2.3-3.3
			C765.4,373.3,765.7,373,766,372.9z M765.6,367.1c-0.2-2-0.8-3.8-1.8-5.3c-1.3-1.9-3-2.8-5.1-2.8c-2.1,0-3.8,0.9-5,2.7
			c-1,1.5-1.6,3.3-1.8,5.3L765.6,367.1L765.6,367.1L765.6,367.1z"/>
		<path class="st0" d="M784.4,357.5c0.3-0.2,0.6-0.3,0.9-0.3c0.3,0,0.6,0.1,0.9,0.3c0.3,0.3,0.4,0.6,0.4,1v2.6
			c0.8-1.4,1.9-2.4,3.1-3.2c1.3-0.8,2.9-1.1,4.7-1.1c2.3,0,4.1,0.7,5.5,2.1c1.2,1.2,1.9,2.8,1.9,4.6v16c0,0.4-0.1,0.8-0.4,1.1
			c-0.3,0.2-0.5,0.3-0.9,0.3c-0.4,0-0.7-0.1-0.9-0.3c-0.3-0.3-0.4-0.6-0.4-1.1v-16c0-1.2-0.4-2.2-1.2-3c-0.9-0.9-2-1.4-3.5-1.4
			c-1.6,0-3,0.4-4.3,1.3c-1.3,0.9-2.5,2.2-3.5,4v15.1c0,0.5-0.1,0.8-0.4,1.1c-0.3,0.2-0.5,0.4-0.9,0.4c-0.4,0-0.7-0.1-0.9-0.4
			c-0.3-0.3-0.4-0.6-0.4-1.1v-21C784,358,784.1,357.6,784.4,357.5z"/>
		<path class="st0" d="M832.7,358.5c1.2,1,1.9,2.4,2.1,4.1c0,0.4-0.1,0.7-0.4,1c-0.3,0.2-0.6,0.4-1,0.4s-0.7-0.1-1-0.3
			c-0.3-0.2-0.5-0.5-0.5-0.9c-0.1-1.2-0.6-2.2-1.5-2.8c-1-0.7-2.4-1.1-4.3-1.1c-1.4,0-2.6,0.3-3.6,0.9s-1.4,1.5-1.4,2.5
			c0,1.2,0.4,2.1,1.3,2.8c0.9,0.7,2.6,1.4,5,2c3,0.7,5,1.6,6.3,2.8c1.2,1.1,1.7,2.6,1.7,4.4c0,1.9-0.7,3.4-2.1,4.6
			c-1.5,1.3-3.6,1.9-6.4,1.9c-2.8,0-4.9-0.6-6.4-1.7c-1.5-1.2-2.3-2.8-2.4-5c0-0.4,0.1-0.7,0.4-1c0.2-0.2,0.5-0.3,0.9-0.3
			c0.4,0,0.7,0.1,0.9,0.3c0.3,0.2,0.4,0.5,0.5,0.9c0,1.5,0.5,2.6,1.4,3.3c1,0.8,2.6,1.2,4.8,1.2c1.8,0,3.3-0.4,4.3-1.2
			c1-0.7,1.5-1.7,1.5-3c0-1.2-0.4-2.1-1.3-2.7c-1-0.8-2.9-1.6-5.7-2.2c-2.5-0.6-4.3-1.5-5.5-2.5c-1.2-1-1.9-2.4-1.9-4.2
			c0-1.9,0.7-3.4,2.2-4.4c1.4-1,3.3-1.5,5.5-1.5C829.1,356.8,831.3,357.4,832.7,358.5z"/>
		<path class="st0" d="M867.1,372.9c0.3-0.1,0.7-0.1,1.1,0c0.3,0.1,0.6,0.3,0.7,0.6c0.2,0.4,0.2,0.8,0,1.2c-0.8,2-2,3.5-3.6,4.5
			c-1.6,1.1-3.4,1.6-5.6,1.6c-3,0-5.4-1.2-7.2-3.7c-1.6-2.3-2.4-5-2.4-8.3s0.8-6.1,2.4-8.4c1.8-2.5,4.2-3.7,7.2-3.7s5.4,1.2,7.2,3.7
			c1.6,2.3,2.5,5.1,2.5,8.4v0.7h-16.6c0.1,2.4,0.7,4.4,1.8,6c1.3,1.9,3,2.9,5.1,2.9c1.7,0,3.1-0.5,4.2-1.5c0.9-0.7,1.7-1.8,2.3-3.3
			C866.5,373.3,866.8,373,867.1,372.9z M866.7,367.1c-0.2-2-0.8-3.8-1.8-5.3c-1.3-1.9-3-2.8-5.1-2.8s-3.8,0.9-5,2.7
			c-1,1.5-1.7,3.3-1.8,5.3L866.7,367.1L866.7,367.1L866.7,367.1z"/>
		<path class="st0" d="M924.4,358.1c1.6,1.1,2.5,2.7,2.5,4.9v13.4c0,0.5,0.1,0.8,0.4,1.1c0.3,0.3,0.7,0.4,1.2,0.4
			c0.3,0,0.6,0.1,0.8,0.3c0.2,0.2,0.3,0.5,0.3,0.8s-0.1,0.6-0.3,0.8c-0.2,0.3-0.5,0.4-0.9,0.4c-1.6,0-2.7-0.2-3.3-0.6
			c-0.5-0.4-0.8-1-0.8-1.9c-0.8,0.8-1.8,1.5-2.9,1.9c-1.5,0.6-3.1,1-5,1c-2.5,0-4.5-0.6-5.8-1.8c-1.3-1.1-1.9-2.7-1.9-4.8
			c0-1.9,0.4-3.3,1.3-4.3c1.3-1.5,3.7-2.4,7.1-2.8c3-0.4,5-0.9,5.8-1.4c0.8-0.5,1.3-1.3,1.3-2.5c0-1.4-0.5-2.4-1.4-3.1
			c-1-0.7-2.5-1.1-4.4-1.1s-3.4,0.4-4.3,1.3c-0.8,0.7-1.3,1.8-1.5,3.2c-0.1,0.4-0.2,0.6-0.6,0.8c-0.3,0.2-0.6,0.3-0.9,0.3
			c-0.3,0-0.6-0.2-0.8-0.4c-0.3-0.3-0.3-0.6-0.3-1c0.3-2.2,1.2-3.8,2.7-4.9c1.4-1,3.3-1.6,5.7-1.6
			C920.9,356.8,922.9,357.3,924.4,358.1z M924.2,367.5c-0.4,0.3-1.1,0.7-2.1,1c-1.2,0.4-2.9,0.7-5,1s-3.6,0.8-4.5,1.6
			c-0.8,0.7-1.3,1.8-1.3,3.3c0,1.4,0.4,2.4,1.2,3.1c0.8,0.7,2.1,1.1,3.8,1.1c1.9,0,3.6-0.4,5-1.1c1.2-0.6,2.2-1.6,2.8-2.7
			L924.2,367.5L924.2,367.5z"/>
		<path class="st0" d="M944.1,357.5c0.3-0.2,0.6-0.3,0.9-0.3c0.3,0,0.6,0.1,0.9,0.3c0.3,0.3,0.4,0.6,0.4,1v2.6
			c0.8-1.4,1.9-2.4,3.1-3.2c1.3-0.8,2.9-1.1,4.7-1.1c2.3,0,4.1,0.7,5.5,2.1c1.2,1.2,1.9,2.8,1.9,4.6v16c0,0.4-0.1,0.8-0.4,1.1
			c-0.3,0.2-0.5,0.3-0.9,0.3s-0.7-0.1-0.9-0.3c-0.3-0.3-0.4-0.6-0.4-1.1v-16c0-1.2-0.4-2.2-1.2-3c-0.9-0.9-2-1.4-3.5-1.4
			c-1.6,0-3,0.4-4.3,1.3c-1.3,0.9-2.5,2.2-3.5,4v15.1c0,0.5-0.1,0.8-0.4,1.1c-0.3,0.2-0.5,0.4-0.9,0.4s-0.7-0.1-0.9-0.4
			c-0.3-0.3-0.4-0.6-0.4-1.1v-21C943.7,358,943.8,357.6,944.1,357.5z"/>
		<path class="st0" d="M997.8,379.1c0,0.5-0.2,0.8-0.5,1.1c-0.2,0.2-0.5,0.3-0.9,0.3c-0.3,0-0.6-0.2-0.9-0.4c-0.3-0.3-0.4-0.6-0.4-1
			v-1.8c-0.6,1-1.5,1.8-2.7,2.5c-1.4,0.8-2.9,1.1-4.6,1.1c-3.2,0-5.8-1.3-7.6-3.8c-1.6-2.2-2.4-5-2.4-8.3c0-3.4,0.8-6.1,2.4-8.3
			c1.8-2.5,4.3-3.7,7.6-3.7c1.6,0,3,0.3,4.2,0.9c1.2,0.6,2.3,1.6,3.1,2.9v-11c0-0.4,0.1-0.8,0.4-1s0.6-0.3,0.9-0.3s0.6,0.1,0.9,0.3
			c0.3,0.3,0.4,0.6,0.4,1.1L997.8,379.1L997.8,379.1z M982.3,362.1c-1.2,1.8-1.7,4-1.7,6.7s0.6,4.9,1.7,6.7c1.3,2,3.2,3,5.6,3
			c2.4,0,4.2-1,5.5-3c1.2-1.8,1.8-4,1.8-6.7s-0.6-4.9-1.8-6.7c-1.3-2-3.2-3-5.5-3C985.5,359.1,983.6,360.1,982.3,362.1z"/>
		<path class="st0" d="M1039.3,348.9c0.3-0.3,0.8-0.5,1.3-0.6c0.5,0,1,0.1,1.4,0.3c0.5,0.3,0.8,0.7,0.9,1.1l0.9,2.7l8.4,24.5
			l8.5-24.6l0.8-2.5c0.2-0.5,0.5-1,0.9-1.3s0.9-0.4,1.4-0.3c0.5,0,0.9,0.2,1.3,0.6s0.6,0.9,0.6,1.5v29.1c0,0.4-0.1,0.8-0.4,1
			s-0.6,0.3-0.9,0.3c-0.4,0-0.7-0.1-0.9-0.3c-0.3-0.3-0.4-0.6-0.4-1v-26.9l-9,26.7c-0.5,1-1.1,1.6-1.9,1.6s-1.4-0.5-1.9-1.6l-9-26.7
			v26.9c0,0.4-0.1,0.8-0.4,1s-0.6,0.3-0.9,0.3c-0.4,0-0.7-0.1-0.9-0.3c-0.3-0.3-0.4-0.6-0.4-1v-29.1
			C1038.7,349.8,1038.9,349.3,1039.3,348.9z"/>
		<path class="st0" d="M1100.4,360.5c1.7,2.2,2.5,5,2.5,8.3s-0.8,6.1-2.5,8.3c-1.9,2.5-4.5,3.8-7.8,3.8c-3.4,0-6-1.3-7.9-3.8
			c-1.7-2.2-2.5-5-2.5-8.3c0-3.4,0.8-6.1,2.5-8.3c1.9-2.5,4.5-3.7,7.9-3.7C1095.9,356.9,1098.5,358,1100.4,360.5z M1086.7,362.1
			c-1.2,1.8-1.8,4-1.8,6.7s0.6,4.9,1.8,6.7c1.4,2,3.4,3,5.9,3s4.4-1,5.8-3c1.3-1.8,1.9-4,1.9-6.7s-0.6-4.9-1.9-6.7
			c-1.4-2-3.3-3-5.8-3S1088.1,360.1,1086.7,362.1z"/>
		<path class="st0" d="M1120.5,350.6c0.3-0.2,0.6-0.3,0.9-0.3c0.4,0,0.7,0.1,0.9,0.3c0.3,0.2,0.4,0.5,0.4,1v5.9h3.5
			c0.7,0,1.1,0.4,1.1,1.1c0,0.8-0.4,1.2-1.1,1.2h-3.5v16.8c0,0.5,0.1,0.9,0.4,1.3c0.3,0.4,0.8,0.6,1.4,0.6h1.5c0.4,0,0.7,0.1,1,0.3
			c0.2,0.2,0.3,0.5,0.3,0.8s-0.1,0.6-0.3,0.8c-0.3,0.3-0.6,0.4-1,0.4h-2c-1.3,0-2.3-0.4-3-1.3c-0.7-0.8-1-1.7-1-2.8v-17h-2.3
			c-0.6,0-1-0.4-1-1.2c0-0.8,0.3-1.1,1-1.1h2.3v-5.9C1120.1,351.1,1120.2,350.9,1120.5,350.6z"/>
		<path class="st0" d="M1145.2,349c0.4,0.4,0.5,0.9,0.5,1.6c0,0.6-0.2,1.1-0.5,1.5c-0.4,0.5-0.9,0.7-1.6,0.7s-1.2-0.2-1.6-0.7
			c-0.3-0.4-0.5-0.9-0.5-1.5s0.2-1.1,0.5-1.6c0.4-0.5,0.9-0.7,1.6-0.7C1144.2,348.3,1144.8,348.5,1145.2,349z M1142.7,357
			c0.3-0.2,0.6-0.3,0.9-0.3c0.4,0,0.7,0.1,0.9,0.3c0.3,0.2,0.4,0.5,0.4,0.9v21.5c0,0.4-0.1,0.8-0.4,1c-0.3,0.3-0.6,0.4-0.9,0.4
			c-0.4,0-0.7-0.1-0.9-0.3c-0.3-0.3-0.4-0.6-0.4-1.1v-21.5C1142.3,357.5,1142.4,357.3,1142.7,357z"/>
		<path class="st0" d="M1179.2,360.5c1.7,2.2,2.5,5,2.5,8.3s-0.8,6.1-2.5,8.3c-1.9,2.5-4.5,3.8-7.8,3.8c-3.4,0-6-1.3-7.9-3.8
			c-1.7-2.2-2.5-5-2.5-8.3c0-3.4,0.8-6.1,2.5-8.3c1.9-2.5,4.5-3.7,7.9-3.7C1174.7,356.9,1177.3,358,1179.2,360.5z M1165.5,362.1
			c-1.2,1.8-1.8,4-1.8,6.7s0.6,4.9,1.8,6.7c1.4,2,3.4,3,5.9,3s4.4-1,5.8-3c1.3-1.8,1.9-4,1.9-6.7s-0.6-4.9-1.9-6.7
			c-1.4-2-3.3-3-5.8-3C1168.8,359.1,1166.9,360.1,1165.5,362.1z"/>
		<path class="st0" d="M1198.1,357.5c0.3-0.2,0.6-0.3,0.9-0.3c0.3,0,0.6,0.1,0.9,0.3c0.3,0.3,0.4,0.6,0.4,1v2.6
			c0.8-1.4,1.9-2.4,3.1-3.2c1.3-0.8,2.9-1.1,4.7-1.1c2.3,0,4.1,0.7,5.5,2.1c1.2,1.2,1.9,2.8,1.9,4.6v16c0,0.4-0.1,0.8-0.4,1.1
			c-0.3,0.2-0.5,0.3-0.9,0.3s-0.7-0.1-0.9-0.3c-0.3-0.3-0.4-0.6-0.4-1.1v-16c0-1.2-0.4-2.2-1.2-3c-0.9-0.9-2-1.4-3.5-1.4
			c-1.6,0-3,0.4-4.3,1.3c-1.3,0.9-2.5,2.2-3.5,4v15.1c0,0.5-0.1,0.8-0.4,1.1c-0.3,0.2-0.5,0.4-0.9,0.4s-0.7-0.1-0.9-0.4
			c-0.3-0.3-0.4-0.6-0.4-1.1v-21C1197.7,358,1197.9,357.6,1198.1,357.5z"/>
	</g>
	<path class="st0" d="M488.4,311.5c0,2.2-1.8,4-4,4h-53.2c-2.2,0-4-1.8-4-4v-53.2c0-2.2,1.8-4,4-4h53.2c2.2,0,4,1.8,4,4V311.5z"/>
	<path class="st0" d="M488.4,244.9c0,2.2-1.8,4-4,4h-53.2c-2.2,0-4-1.8-4-4v-53.2c0-2.2,1.8-4,4-4h53.2c2.2,0,4,1.8,4,4V244.9z"/>
	<path class="st0" d="M421.9,244.9c0,2.2-1.8,4-4,4h-53.2c-2.2,0-4-1.8-4-4v-53.2c0-2.2,1.8-4,4-4h53.2c2.2,0,4,1.8,4,4V244.9z"/>
	<path class="st0" d="M355.7,244.9c0,2.2-1.8,4-4,4h-53.2c-2.2,0-4-1.8-4-4v-53.2c0-2.2,1.8-4,4-4h53.2c2.2,0,4,1.8,4,4V244.9z"/>
	<polygon class="st1" points="421.9,323.5 421.7,322.9 421.5,322 421,321.5 420.5,321 419.9,320.5 419.2,320.3 363.6,320.3 
		362.9,320.5 362.3,321 361.8,321.5 361.3,322 361.1,322.9 360.9,323.5 360.7,324.3 360.7,377 360.9,377.8 361.1,378.5 361.3,379 
		361.8,379.6 362.3,380.3 362.9,380.6 363.6,381 364.3,381.1 365.1,381.3 417.7,381.3 418.5,381.1 419.2,381 419.9,380.6 
		420.5,380.3 421,379.6 421.5,379 421.7,378.5 421.9,377.8 422.1,377 422.1,324.3 	"/>
	<g>
		<path class="st0" d="M404.9,337.3c-3.7-3.7-8.2-5.6-13.5-5.6c-5.3,0-9.7,1.8-13.1,5.4c-4,3.9-6,8.4-6,13.6s2,9.8,6,13.6
			c3.5,3.6,7.8,5.5,13.1,5.5c5.3,0,9.8-1.9,13.5-5.6c3.7-3.7,5.6-8.2,5.6-13.5C410.5,345.5,408.6,341,404.9,337.3z M401,360.5
			c-2.7,2.7-5.9,4-9.7,4c-3.7,0-6.9-1.1-9.4-3.3c-2.8-3.1-4.2-6.6-4.2-10.4s1.4-7.2,4.2-10.4c2.6-2.2,5.7-3.3,9.4-3.3
			c3.8,0,7,1.3,9.7,4s4,5.9,4,9.7S403.7,357.8,401,360.5z"/>
	</g>
	<g>
		<path class="st1" d="M488.5,377.3c0,2.2-1.8,4-4,4h-53.2c-2.2,0-4-1.8-4-4V324c0-2.2,1.8-4,4-4h53.2c2.2,0,4,1.8,4,4V377.3z"/>
		<path class="st0" d="M474.3,363.8l-3.7-3.5c-2.9,2.7-6.2,4-10,4c-3.7,0-6.9-1.3-9.6-4c-2.7-2.7-4-5.9-4-9.7c0-3.8,1.3-7,4-9.7
			s5.9-4,9.6-4c3.8,0,7.1,1.4,10,4.1l3.7-3.6c-3.8-3.9-8.4-5.9-13.7-5.9s-9.6,1.8-13.1,5.5c-4,3.9-5.9,8.4-5.9,13.6
			s1.9,9.7,5.8,13.7c3.6,3.6,8.1,5.5,13.3,5.5S470.5,367.8,474.3,363.8z"/>
	</g>
	<g>
		<polygon class="st1" points="355.9,323.5 355.6,322.9 355.4,322 354.9,321.5 354.4,321 353.8,320.5 353.1,320.3 297.6,320.3 
			296.8,320.5 296.2,321 295.8,321.5 295.3,322 295,322.9 294.8,323.5 294.7,324.3 294.7,377 294.8,377.8 295,378.5 295.3,379 
			295.8,379.6 296.2,380.3 296.8,380.6 297.6,381 298.3,381.1 299,381.3 351.7,381.3 352.4,381.1 353.1,381 353.8,380.6 
			354.4,380.3 354.9,379.6 355.4,379 355.6,378.5 355.9,377.8 356,377 356,324.3 		"/>
		<g>
			<path class="st0" d="M336,338c-3.5-3.6-7.8-5.4-12.9-5.4h-13.8V369h13.8c5.1,0,9.3-1.8,12.9-5.3c3.6-3.6,5.4-7.9,5.4-12.9
				C341.3,345.8,339.6,341.5,336,338z M332.2,359.9c-2.6,2.5-5.6,3.7-9.1,3.7h-8.3v-25.5h8.3c3.5,0,6.6,1.2,9.1,3.8
				c2.5,2.5,3.8,5.5,3.8,9C335.9,354.3,334.7,357.3,332.2,359.9z"/>
		</g>
	</g>
	<g>
		<g>
			<polygon class="st1" points="355.9,257.5 355.6,256.9 355.4,256.1 354.9,255.6 354.4,255.1 353.8,254.6 353.1,254.4 297.6,254.4 
				296.8,254.6 296.2,255.1 295.8,255.6 295.3,256.1 295,256.9 294.8,257.5 294.7,258.4 294.7,311 294.8,311.9 295,312.5 
				295.3,313.1 295.8,313.8 296.2,314.4 296.8,314.8 297.6,315 298.3,315.1 299,315.4 351.7,315.4 352.4,315.1 353.1,315 
				353.8,314.8 354.4,314.4 354.9,313.8 355.4,313.1 355.6,312.5 355.9,311.9 356,311 356,258.4 			"/>
		</g>
		<polygon class="st0" points="339.5,272 339.5,266.6 311.1,266.6 311.1,272 322.6,272 322.6,303 328.1,303 328.1,272 		"/>
	</g>
	<g>
		<path class="st0" d="M391.4,271c-3.7,0-6.9,1.1-9.4,3.3c-2.8,3.1-4.2,6.6-4.2,10.4s1.4,7.3,4.2,10.4c2.6,2.2,5.7,3.3,9.4,3.3
			c3.8,0,7-1.3,9.7-4c2.7-2.7,4-5.9,4-9.7c0-3.8-1.3-7-4-9.7C398.4,272.5,395.1,271,391.4,271z"/>
		<path class="st0" d="M421.9,257.5l-0.2-0.7l-0.2-0.7l-0.5-0.6l-0.5-0.5l-0.6-0.5l-0.7-0.2h-55.6l-0.7,0.2l-0.6,0.5l-0.5,0.5
			l-0.5,0.6l-0.2,0.7l-0.2,0.7l-0.1,0.7V311l0.1,0.8l0.2,0.7l0.2,0.6l0.5,0.6l0.5,0.6l0.6,0.4l0.7,0.4l0.7,0.1l0.7,0.1h52.7l0.7-0.1
			l0.7-0.1l0.7-0.4l0.6-0.4l0.5-0.6l0.5-0.6l0.2-0.6l0.2-0.7l0.1-0.8v-52.7V257.5z M404.9,298.3c-3.7,3.7-8.3,5.6-13.5,5.6
			c-5.3,0-9.6-1.8-13.1-5.5c-4-3.9-6-8.4-6-13.6s2-9.8,6-13.6c3.4-3.6,7.8-5.4,13.1-5.4c5.3,0,9.8,1.9,13.5,5.6
			c3.7,3.7,5.6,8.2,5.6,13.5C410.5,290,408.6,294.5,404.9,298.3z"/>
	</g>
</g>
</svg>
