<svg xmlns="http://www.w3.org/2000/svg" xmlns:xlink="http://www.w3.org/1999/xlink" width="1200" height="600" viewBox="0 0 1200 600"><defs><path id="a" d="M.5.5h1200v600H.5z"/></defs><clipPath id="b"><use xlink:href="#a" overflow="visible"/></clipPath><g clip-path="url(#b)"><path d="M1570-63.6L222.8 1283.6M1566-67.6L218.8 1279.6M1562-71.6L214.8 1275.6M1558-75.6L210.8 1271.6M1554-79.6L206.8 1267.6M1550-83.6L202.8 1263.6M1546-87.6L198.8 1259.6M1542-91.6L194.8 1255.6M1538-95.6L190.8 1251.6M1534-99.6L186.8 1247.6M1530-103.6L182.8 1243.6M1526-107.6L178.8 1239.6M1522-111.6L174.8 1235.6M1518-115.6L170.8 1231.6M1514-119.6L166.8 1227.6M1510-123.6L162.8 1223.6M1506-127.6L158.8 1219.6M1502-131.6L154.8 1215.6M1498-135.6L150.8 1211.6M1494-139.6L146.8 1207.6M1490-143.6L142.8 1203.6M1486-147.6L138.8 1199.6M1482-151.6L134.8 1195.6M1478-155.6L130.8 1191.6M1474-159.6L126.8 1187.6M1470-163.6L122.8 1183.6M1466-167.6L118.8 1179.6M1462-171.6L114.8 1175.6M1458-175.6L110.8 1171.6M1454-179.6L106.8 1167.6M1450-183.6L102.8 1163.6M1446-187.6L98.8 1159.6M1442-191.6L94.8 1155.6M1438-195.6L90.8 1151.6M1434-199.6L86.8 1147.6M1430-203.6L82.8 1143.6M1426-207.6L78.8 1139.6M1422-211.6L74.8 1135.6M1418-215.6L70.8 1131.6M1414-219.6L66.8 1127.6M1410-223.6L62.8 1123.6M1406-227.6L58.8 1119.6M1402-231.6L54.8 1115.6M1398-235.6L50.8 1111.6M1394-239.6L46.8 1107.6M1390-243.6L42.8 1103.6M1386-247.6L38.8 1099.6M1382-251.6L34.8 1095.6M1378-255.6L30.8 1091.6M1374-259.6L26.8 1087.6M1370-263.6L22.8 1083.6M1366-267.6L18.8 1079.6M1362-271.6L14.8 1075.6M1358-275.6L10.8 1071.6M1354-279.6L6.8 1067.6M1350-283.6L2.8 1063.6M1346-287.6L-1.3 1059.6M1342-291.6L-5.3 1055.6M1338-295.6L-9.3 1051.6M1334-299.6L-13.3 1047.6M1330-303.6L-17.3 1043.6M1326-307.6L-21.3 1039.6M1322-311.6L-25.3 1035.6M1318-315.6L-29.3 1031.6M1314-319.6L-33.3 1027.6M1310-323.6L-37.3 1023.6M1306-327.6L-41.3 1019.6M1302-331.6L-45.3 1015.6M1298-335.6L-49.3 1011.6M1294-339.6L-53.3 1007.6M1290-343.6L-57.3 1003.6M1286-347.6L-61.3 999.6M1282-351.6L-65.3 995.6M1278-355.6L-69.3 991.6M1274-359.6L-73.3 987.6M1270-363.6L-77.3 983.6M1266-367.6L-81.3 979.6M1262-371.6L-85.3 975.6M1258-375.6L-89.3 971.6M1254-379.6L-93.3 967.6M1250-383.6L-97.3 963.6M1246-387.6L-101.3 959.6M1242-391.6L-105.3 955.6M1238-395.6L-109.3 951.6M1234-399.6L-113.3 947.6M1230-403.6L-117.3 943.6M1226-407.6L-121.3 939.6M1222-411.6L-125.3 935.6M1218-415.6L-129.3 931.6M1214-419.6L-133.3 927.6M1210-423.6L-137.3 923.6M1206-427.6L-141.3 919.6M1202-431.6L-145.3 915.6M1198-435.6L-149.3 911.6M1194-439.6L-153.3 907.6M1190-443.6L-157.3 903.6M1186-447.6L-161.3 899.6M1182-451.6L-165.3 895.6M1178-455.6L-169.3 891.6M1174-459.6L-173.3 887.6M1170-463.6L-177.3 883.6M1166-467.6L-181.3 879.6M1162-471.6L-185.3 875.6M1158-475.6L-189.3 871.6M1154-479.6L-193.3 867.6M1150-483.6L-197.3 863.6M1146-487.6L-201.3 859.6M1142-491.6L-205.3 855.6M1138-495.6L-209.3 851.6M1134-499.6L-213.3 847.6M1130-503.6L-217.3 843.6M1126-507.6L-221.3 839.6M1122-511.6L-225.3 835.6M1118-515.6L-229.3 831.6M1114-519.6L-233.3 827.6M1110-523.6L-237.3 823.6M1106-527.6L-241.3 819.6M1102-531.6L-245.3 815.6M1098-535.6L-249.3 811.6M1094-539.6L-253.3 807.6M1090-543.6L-257.3 803.6M1086-547.6L-261.3 799.6M1082-551.6L-265.3 795.6M1078-555.6L-269.3 791.6M1074-559.6L-273.3 787.6M1070-563.6L-277.3 783.6M1066-567.6L-281.3 779.6M1062-571.6L-285.3 775.6M1058-575.6L-289.3 771.6M1054-579.6L-293.3 767.6M1050-583.6L-297.3 763.6M1046-587.6L-301.3 759.6M1042-591.6L-305.3 755.6M1038-595.6L-309.3 751.6M1034-599.6L-313.3 747.6M1030-603.6L-317.3 743.6M1026-607.6L-321.3 739.6M1022-611.6L-325.3 735.6M1018-615.6L-329.3 731.6M1014-619.6L-333.3 727.6M1010-623.6L-337.3 723.6M1006-627.6L-341.3 719.6M1002-631.6L-345.3 715.6M998-635.6L-349.3 711.6M994-639.6L-353.3 707.6M990-643.6L-357.3 703.6M986-647.6L-361.3 699.6M982-651.6L-365.3 695.6M978-655.6L-369.3 691.6M974-659.6L-373.3 687.6M970-663.6L-377.3 683.6M966-667.6L-381.3 679.6M962-671.6L-385.3 675.6M958-675.6L-389.3 671.6M954-679.6L-393.3 667.6M950-683.6L-397.3 663.6M946-687.6L-401.3 659.6M942-691.6L-405.3 655.6M938-695.6L-409.3 651.6M934-699.6L-413.3 647.6M930-703.6L-417.3 643.6M926-707.6L-421.3 639.6M922-711.6L-425.3 635.6M918-715.6L-429.3 631.6M914-719.6L-433.3 627.6M910-723.6L-437.3 623.6M906-727.6L-441.3 619.6M902-731.6L-445.3 615.6M898-735.6L-449.3 611.6M894-739.6L-453.3 607.6M890-743.6L-457.3 603.6M886-747.6L-461.3 599.6M882-751.6L-465.3 595.6M878-755.6L-469.3 591.6M874-759.6L-473.3 587.6M870-763.6L-477.3 583.6M866-767.6L-481.3 579.6M862-771.6L-485.3 575.6M858-775.6L-489.3 571.6M854-779.6L-493.3 567.6M850-783.6L-497.3 563.6M846-787.6L-501.3 559.6M842-791.6L-505.3 555.6M838-795.6L-509.3 551.6M834-799.6L-513.3 547.6M830-803.6L-517.3 543.6M826-807.6L-521.3 539.6M822-811.6L-525.3 535.6M818-815.6L-529.3 531.6M814-819.6L-533.3 527.6M810-823.6L-537.3 523.6M806-827.6L-541.3 519.6M802-831.6L-545.3 515.6m2295.8-399.7L403.2 1463.1M1746.5 111.9L399.2 1459.1M1742.5 107.9L395.2 1455.1M1738.5 103.9L391.2 1451.1M1734.5 99.9L387.2 1447.1M1730.5 95.9L383.2 1443.1M1726.5 91.9L379.2 1439.1M1722.5 87.9L375.2 1435.1M1718.5 83.9L371.2 1431.1M1714.5 79.9L367.2 1427.1M1710.5 75.9L363.2 1423.1M1706.5 71.9L359.2 1419.1M1702.5 67.9L355.2 1415.1M1698.5 63.9L351.2 1411.1M1694.5 59.9L347.2 1407.1M1690.5 55.9L343.2 1403.1M1686.5 51.9L339.2 1399.1M1682.5 47.9L335.2 1395.1M1678.5 43.9L331.2 1391.1M1674.5 39.9L327.2 1387.1M1670.5 35.9L323.2 1383.1M1666.5 31.9L319.2 1379.1M1662.5 27.9L315.2 1375.1M1658.5 23.9L311.2 1371.1M1654.5 19.9L307.2 1367.1M1650.5 15.9L303.2 1363.1M1646.5 11.9L299.2 1359.1M1642.5 7.9L295.2 1355.1M1638.5 3.9L291.2 1351.1M1634.5-.1L287.2 1347.1M1630.5-4.1L283.2 1343.1M1626.5-8.1L279.2 1339.1M1622.5-12.1L275.2 1335.1M1618.5-16.1L271.2 1331.1M1614.5-20.1L267.2 1327.1M1610.5-24.1L263.2 1323.1M1606.5-28.1L259.2 1319.1M1602.5-32.1L255.2 1315.1M1598.5-36.1L251.2 1311.1M1594.5-40.1L247.2 1307.1M1590.5-44.1L243.2 1303.1M1586.5-48.1L239.2 1299.1M1582.5-52.1L235.2 1295.1M1578.5-56.1L231.2 1291.1M1574.5-60.1L227.2 1287.1" fill="none" stroke="#aadbdf" stroke-miterlimit="10"/></g></svg>